<svg width="139" height="174" viewBox="0 0 139 174" fill="none" xmlns="http://www.w3.org/2000/svg">
<g clip-path="url(#clip0_1898_1337)">
<path d="M22.6535 119.246L19.8614 118.978L18 117.388L20.6864 75.4806L23.2246 68.9984L26.7994 64.0231L76.0423 12.9083L77.9037 12L80.442 12.9909L116.02 86.2981L116.316 90.5714L114.73 94.1429L22.6535 119.246Z" fill="white"/>
<path d="M57.6622 123.065L111.411 148.911L112.828 149.964L113.737 152.111L111.051 160.513L109.105 161.69L106.63 162L31.0948 158.16L28.1546 157.685L26.1662 155.868L18.3398 134.46L19.5667 132.024L21.9569 130.27L51.5492 122.177L57.6622 123.065Z" fill="white"/>
<path d="M117.418 137.867L115.705 139.085L113.273 139.292L72.0677 119.639L70.9043 118.09L71.0947 116.914L113.865 105.064L116.995 106.261L118.582 108.47L120.634 128L117.418 137.867Z" fill="white"/>
</g>
<defs>
<clipPath id="clip0_1898_1337">
<rect width="102.632" height="150" fill="white" transform="translate(18 12)"/>
</clipPath>
</defs>
</svg>
