<svg width="394" height="150" viewBox="0 0 394 150" fill="none" xmlns="http://www.w3.org/2000/svg">
<g clip-path="url(#clip0_1813_3550)">
<path d="M4.65353 107.246L1.86141 106.978L0 105.388L2.68636 63.4806L5.22465 56.9984L8.79941 52.0231L58.0423 0.90834L59.9037 0L62.442 0.990917L98.0203 74.2981L98.3165 78.5714L96.73 82.1429L4.65353 107.246Z" fill="white"/>
<path d="M39.6622 111.065L93.4105 136.911L94.8278 137.964L95.7373 140.111L93.0509 148.513L91.1049 149.69L88.6301 150L13.0948 146.16L10.1546 145.685L8.16624 143.868L0.339844 122.46L1.56668 120.024L3.95691 118.27L33.5492 110.177L39.6622 111.065Z" fill="white"/>
<path d="M99.4185 125.867L97.7051 127.085L95.2726 127.292L54.0677 107.639L52.9043 106.09L53.0947 104.914L95.8649 93.064L98.9954 94.2613L100.582 96.4702L102.634 116L99.4185 125.867Z" fill="white"/>
</g>
<path d="M344.661 126.317L353.886 73.8165H370.836C376.336 73.8165 380.786 74.7415 384.186 76.5915C387.636 78.3915 390.111 80.9915 391.611 84.3915C393.161 87.7415 393.836 91.7415 393.636 96.3915C393.436 100.842 392.561 104.892 391.011 108.542C389.461 112.192 387.286 115.367 384.486 118.067C381.736 120.717 378.436 122.767 374.586 124.217C370.736 125.617 366.411 126.317 361.611 126.317H344.661ZM355.011 118.667H362.586C367.186 118.667 371.061 117.792 374.211 116.042C377.411 114.242 379.861 111.717 381.561 108.467C383.261 105.217 384.186 101.367 384.336 96.9165C384.536 93.5665 384.136 90.7415 383.136 88.4415C382.136 86.1415 380.486 84.3915 378.186 83.1915C375.936 81.9915 372.911 81.3915 369.111 81.3915H361.536L355.011 118.667Z" fill="white"/>
<path d="M298.078 126.317L307.303 73.8165H325.978C329.778 73.8165 332.878 74.4665 335.278 75.7665C337.678 77.0665 339.403 78.7915 340.453 80.9415C341.553 83.0915 342.053 85.4665 341.953 88.0665C341.803 91.5165 340.828 94.5665 339.028 97.2165C337.228 99.8165 334.728 101.842 331.528 103.292C328.378 104.742 324.678 105.467 320.428 105.467H310.753L307.078 126.317H298.078ZM325.903 126.317L319.003 103.142H328.378L335.803 126.317H325.903ZM311.953 98.7915H321.178C324.628 98.7915 327.378 97.9165 329.428 96.1665C331.478 94.3665 332.553 91.9165 332.653 88.8165C332.753 86.6165 332.128 84.8165 330.778 83.4165C329.478 82.0165 327.278 81.3165 324.178 81.3165H314.953L311.953 98.7915Z" fill="white"/>
<path d="M242.332 126.317L270.832 73.8165H280.957L290.782 126.317H281.332L274.057 84.0915L251.857 126.317H242.332ZM252.307 113.942L255.907 106.967H283.132L284.257 113.942H252.307Z" fill="white"/>
<path d="M226.126 126.317L235.426 73.8165H244.426L235.126 126.317H226.126ZM192.901 126.317L202.201 73.8165H211.201L201.901 126.317H192.901ZM204.676 103.067L205.951 95.9415H233.176L231.901 103.067H204.676Z" fill="white"/>
<path d="M166.003 127.217C162.253 127.217 158.978 126.567 156.178 125.267C153.428 123.967 151.378 122.067 150.028 119.567C148.728 117.067 148.353 114.042 148.903 110.492H158.428C158.078 112.292 158.228 113.892 158.878 115.292C159.528 116.642 160.578 117.717 162.028 118.517C163.478 119.267 165.178 119.642 167.128 119.642C169.178 119.642 170.928 119.317 172.378 118.667C173.828 117.967 174.953 117.017 175.753 115.817C176.553 114.567 177.003 113.117 177.103 111.467C177.153 110.317 176.953 109.342 176.503 108.542C176.103 107.692 175.503 106.942 174.703 106.292C173.903 105.642 172.953 105.092 171.853 104.642C170.753 104.142 169.553 103.667 168.253 103.217C167.003 102.767 165.703 102.292 164.353 101.792C160.853 100.592 158.203 98.9415 156.403 96.8415C154.653 94.6915 153.853 92.1165 154.003 89.1165C154.153 85.8165 155.078 82.9665 156.778 80.5665C158.528 78.1665 160.878 76.2915 163.828 74.9415C166.828 73.5915 170.203 72.9165 173.953 72.9165C177.403 72.9165 180.353 73.5165 182.803 74.7165C185.253 75.9165 187.078 77.6415 188.278 79.8915C189.478 82.1415 189.853 84.8415 189.403 87.9915H179.803C180.053 86.5415 179.878 85.2665 179.278 84.1665C178.728 83.0165 177.853 82.1165 176.653 81.4665C175.503 80.8165 174.103 80.4915 172.453 80.4915C170.753 80.4915 169.253 80.7915 167.953 81.3915C166.653 81.9915 165.628 82.8415 164.878 83.9415C164.128 84.9915 163.728 86.2665 163.678 87.7665C163.628 88.7665 163.778 89.6415 164.128 90.3915C164.478 91.0915 165.003 91.7165 165.703 92.2665C166.403 92.8165 167.228 93.3415 168.178 93.8415C169.178 94.2915 170.278 94.7165 171.478 95.1165C172.678 95.5165 173.928 95.9665 175.228 96.4665C176.878 97.0665 178.428 97.7915 179.878 98.6415C181.328 99.4415 182.578 100.392 183.628 101.492C184.728 102.592 185.553 103.892 186.103 105.392C186.653 106.842 186.878 108.542 186.778 110.492C186.678 113.742 185.728 116.642 183.928 119.192C182.178 121.692 179.753 123.667 176.653 125.117C173.603 126.517 170.053 127.217 166.003 127.217Z" fill="white"/>
<defs>
<clipPath id="clip0_1813_3550">
<rect width="102.632" height="150" fill="white"/>
</clipPath>
</defs>
</svg>
